<svg width="24" height="23" viewBox="0 0 24 23" fill="none" xmlns="http://www.w3.org/2000/svg">
<path d="M3.35403 10.6543V14.9179C3.35403 19.1815 5.06328 20.8908 9.32689 20.8908H14.4451C18.7087 20.8908 20.418 19.1815 20.418 14.9179V10.6543" stroke="#768085" stroke-width="1.42437" stroke-linecap="round" stroke-linejoin="round"/>
<path d="M11.8907 11.3947C13.6285 11.3947 14.9104 9.97985 14.7395 8.24212L14.1128 1.89893H9.67821L9.04199 8.24212C8.87107 9.97985 10.153 11.3947 11.8907 11.3947Z" stroke="#768085" stroke-width="1.42437" stroke-linecap="round" stroke-linejoin="round"/>
<path d="M17.8826 11.3947C19.8007 11.3947 21.2061 9.83741 21.0162 7.92876L20.7503 5.31741C20.4085 2.84851 19.4589 1.89893 16.971 1.89893H14.0748L14.7395 8.55548C14.9009 10.1223 16.3158 11.3947 17.8826 11.3947Z" stroke="#768085" stroke-width="1.42437" stroke-linecap="round" stroke-linejoin="round"/>
<path d="M5.85143 11.3947C7.41824 11.3947 8.83311 10.1223 8.98504 8.55548L9.19395 6.45691L9.64975 1.89893H6.75353C4.26563 1.89893 3.31605 2.84851 2.9742 5.31741L2.71781 7.92876C2.5279 9.83741 3.93328 11.3947 5.85143 11.3947Z" stroke="#768085" stroke-width="1.42437" stroke-linecap="round" stroke-linejoin="round"/>
<path d="M11.8908 16.1426C10.305 16.1426 9.51682 16.9307 9.51682 18.5165V20.8905H14.2647V18.5165C14.2647 16.9307 13.4766 16.1426 11.8908 16.1426Z" stroke="#768085" stroke-width="1.42437" stroke-linecap="round" stroke-linejoin="round"/>
</svg>
